<svg width="230" height="303" viewBox="0 0 230 303" fill="none" xmlns="http://www.w3.org/2000/svg">
<path d="M40.134 250.812V284.527C40.134 290.129 38.3762 294.559 34.8606 297.816C31.3684 301.074 26.5872 302.703 20.5168 302.703C14.5403 302.703 9.79419 301.121 6.27856 297.957C2.76294 294.793 0.969971 290.445 0.899658 284.914V250.812H11.4465V284.598C11.4465 287.949 12.2434 290.398 13.8372 291.945C15.4543 293.469 17.6809 294.23 20.5168 294.23C26.4465 294.23 29.4583 291.113 29.552 284.879V250.812H40.134Z" fill="#F15A27"/>
<path d="M48.7825 302V250.812H64.5325C69.0325 250.812 73.052 251.832 76.5911 253.871C80.1536 255.887 82.9309 258.77 84.9231 262.52C86.9153 266.246 87.9114 270.488 87.9114 275.246V277.602C87.9114 282.359 86.927 286.59 84.9583 290.293C83.0129 293.996 80.259 296.867 76.6965 298.906C73.134 300.945 69.1145 301.977 64.6379 302H48.7825ZM59.3293 259.355V293.527H64.427C68.552 293.527 71.7043 292.18 73.884 289.484C76.0637 286.789 77.177 282.934 77.2239 277.918V275.211C77.2239 270.008 76.1458 266.07 73.9895 263.398C71.8333 260.703 68.6809 259.355 64.5325 259.355H59.3293Z" fill="#F15A27"/>
<path d="M137.657 277.566C137.657 282.605 136.767 287.023 134.986 290.82C133.204 294.617 130.65 297.547 127.322 299.609C124.017 301.672 120.22 302.703 115.931 302.703C111.689 302.703 107.904 301.684 104.575 299.645C101.247 297.605 98.6692 294.699 96.8411 290.926C95.0129 287.129 94.0872 282.77 94.0637 277.848V275.316C94.0637 270.277 94.9661 265.848 96.7708 262.027C98.5989 258.184 101.165 255.242 104.47 253.203C107.798 251.141 111.595 250.109 115.861 250.109C120.126 250.109 123.911 251.141 127.216 253.203C130.544 255.242 133.111 258.184 134.915 262.027C136.743 265.848 137.657 270.266 137.657 275.281V277.566ZM126.97 275.246C126.97 269.879 126.009 265.801 124.087 263.012C122.165 260.223 119.423 258.828 115.861 258.828C112.322 258.828 109.591 260.211 107.669 262.977C105.747 265.719 104.775 269.75 104.751 275.07V277.566C104.751 282.793 105.712 286.848 107.634 289.73C109.556 292.613 112.322 294.055 115.931 294.055C119.47 294.055 122.189 292.672 124.087 289.906C125.986 287.117 126.947 283.062 126.97 277.742V275.246Z" fill="#F15A27"/>
<path d="M164.271 283.262H155.868V302H145.322V250.812H164.341C170.388 250.812 175.052 252.16 178.333 254.855C181.615 257.551 183.255 261.359 183.255 266.281C183.255 269.773 182.493 272.691 180.97 275.035C179.47 277.355 177.185 279.207 174.115 280.59L185.189 301.508V302H173.868L164.271 283.262ZM155.868 274.719H164.376C167.025 274.719 169.075 274.051 170.529 272.715C171.982 271.355 172.708 269.492 172.708 267.125C172.708 264.711 172.017 262.812 170.634 261.43C169.275 260.047 167.177 259.355 164.341 259.355H155.868V274.719Z" fill="#F15A27"/>
<path d="M229.734 302.703V268.988C229.734 263.387 227.977 258.957 224.461 255.699C220.969 252.441 216.188 250.812 210.117 250.812C204.141 250.812 199.395 252.395 195.879 255.559C192.363 258.723 190.57 263.07 190.5 268.602V302.703H201.047V268.918C201.047 265.566 201.844 263.117 203.438 261.57C205.055 260.047 207.281 259.285 210.117 259.285C216.047 259.285 219.059 262.402 219.152 268.637V302.703H229.734Z" fill="#F15A27"/>
<path d="M201 283H219.2V291H201V283Z" fill="#F15A27"/>
<path d="M8.02386 121.028C8.01491 80.7506 8.00596 40.473 8 0.1924C25.0648 0.174586 42.1325 0.421021 59.1823 0.00832864C65.8538 -0.151998 67.8638 1.98569 67.8161 8.60955C67.5358 45.2056 67.6491 81.8046 67.7416 118.401C67.7505 121.088 68.1382 123.394 69.2089 126.456C69.2089 126.456 69.3967 127.049 69.3938 127.037C69.5787 127.652 69.7606 128.279 69.9485 128.905C79.1161 152.449 94.3676 163.452 117.537 163.236C139.269 163.031 152.072 149.759 151.106 128.13C150.832 122.029 149.83 115.957 149.111 109.405C152.886 110.842 154.595 113.496 156.074 116.379C174.094 151.594 158.603 196.649 128.694 214.902C113.699 224.053 97.9762 224.48 81.7166 218.753C53.8977 208.952 32.6517 191.524 19.2194 165.174C14.3225 155.567 9.56869 134.638 9.56869 134.638C9.56869 134.638 8.20876 126.298 8.25648 126.776C8.20876 126.301 8.16104 125.826 8.11333 125.357C8.08649 123.917 8.05666 122.474 8.02386 121.028Z" fill="#F15A27"/>
<path d="M222.596 22.4695C223.305 54.9801 223.461 87.4938 222.53 120.001C222.491 120.88 222.45 121.762 222.411 122.644C222.357 124.013 222.303 125.381 222.253 126.747C222.184 127.445 222.115 128.148 222.047 128.855C221.868 132.97 221.799 137.112 218.611 142.717C215.665 111.682 203.685 87.7105 178.413 71.7016C153.961 56.2123 126.923 53.1512 98.4512 56.6903C104.69 45.6515 132.822 42.8725 160.755 50.0249C160.749 50.0219 160.999 49.9596 160.999 49.9596C161.366 49.5439 161.733 49.1253 162.1 48.7126C162.1 48.3941 162.097 47.69 162.1 47.0277C162.159 31.6333 162.231 15.6467 162.29 0.255331C180.217 0.19595 198.147 0.246415 216.07 0.00295601C220.678 -0.0593932 222.527 1.37762 222.312 6.11319C222.068 11.5495 222.473 17.0154 222.596 22.4695Z" fill="#F15A27"/>
<path d="M109.215 66.4191C138.412 59.1094 176.395 75.8873 193.477 102.757C214.625 136.031 212.352 174.227 187.766 204.956C170.552 226.473 131.75 240.611 111.547 233.138C153.16 218.234 176.18 189.669 175.062 145.332C174.277 114.253 154.475 79.7648 109.215 66.4191Z" fill="#706F6E"/>
</svg>
